<svg width="130" height="130" viewBox="0 0 130 130" fill="none" xmlns="http://www.w3.org/2000/svg">
<path d="M71.5 0.325V13.455C97.175 16.64 117 38.48 117 65C117 85.865 104.52 104 86.32 112.32L71.5 97.5V130H104L96.07 122.07C116.415 110.955 130 89.44 130 65C130 31.33 104.325 3.575 71.5 0.325ZM58.5 0C45.825 1.3 33.8 6.24 23.92 14.365L33.15 23.595C40.495 17.875 49.27 14.3 58.5 13V0ZM14.3 23.92C6.24 33.8 1.3 45.825 0 58.5H13C14.235 49.27 17.875 40.495 23.595 33.15L14.3 23.92ZM26 39V52H45.5V58.5H39C31.85 58.5 26 64.35 26 71.5V91H58.5V78H39V71.5H45.5C52.715 71.5 58.5 65.715 58.5 58.5V52C58.5 44.85 52.715 39 45.5 39H26ZM65 39V71.5H84.5V91H97.5V71.5H104V58.5H97.5V39H84.5V58.5H78V39H65ZM0 71.5C1.3 84.175 6.305 96.2 14.43 106.08L23.66 96.85C17.94 89.505 14.3 80.73 13 71.5H0ZM33.215 106.405L23.92 115.635C33.8 123.695 45.825 128.7 58.5 130V117C49.27 115.765 40.56 112.125 33.215 106.405Z" fill="white"/>
</svg>
