<svg width="40" height="36" viewBox="0 0 40 36" fill="none" xmlns="http://www.w3.org/2000/svg">
<path d="M33.44 23.4714C34.14 21.7863 34.52 19.9824 34.52 18C34.52 16.5727 34.3 15.2048 33.92 13.9361C32.62 14.2335 31.26 14.3921 29.84 14.3921C23.72 14.3921 18.3 11.3987 15 6.77974C13.22 11.0617 9.82 14.5507 5.54 16.4537C5.46 16.9493 5.46 17.4846 5.46 18C5.46 21.8223 6.99189 25.488 9.71867 28.1907C12.4454 30.8935 16.1438 32.4119 20 32.4119C22.1 32.4119 24.12 31.9559 25.94 31.1432C27.08 33.304 27.6 34.3745 27.56 34.3745C24.28 35.4648 21.74 36 20 36C15.16 36 10.54 34.1167 7.14 30.7269C5.06 28.6652 3.52 26.1476 2.66 23.4119H0V14.3921H2.18C3.86 6.18502 11.2 0 20 0C24.8 0 29.42 1.88326 32.84 5.27313C35.38 7.77092 37.08 10.9626 37.78 14.3921H40V23.293V23.3326V23.4119H39.88L32.76 29.8943L22.16 28.7048V25.3943H31.82L33.44 23.4714ZM14.54 17.5441C15.14 17.5441 15.72 17.7819 16.14 18.2181C16.56 18.6344 16.8 19.2093 16.8 19.804C16.8 20.3987 16.56 20.9736 16.14 21.3899C15.72 21.8062 15.14 22.0441 14.54 22.0441C13.28 22.0441 12.26 21.0529 12.26 19.804C12.26 18.5551 13.28 17.5441 14.54 17.5441ZM25.44 17.5441C26.7 17.5441 27.7 18.5551 27.7 19.804C27.7 21.0529 26.7 22.0441 25.44 22.0441C24.18 22.0441 23.16 21.0529 23.16 19.804C23.16 19.2046 23.4002 18.6298 23.8278 18.206C24.2554 17.7822 24.8353 17.5441 25.44 17.5441Z" fill="#F9F9F9"/>
</svg>
