<svg width="15" height="18" viewBox="0 0 15 18" fill="none" xmlns="http://www.w3.org/2000/svg">
<path d="M10.5882 7.90244L9.70588 9.65854H8.38235L9.26471 7.90244H7.94118V5.26829H10.5882M7.05882 7.90244L6.17647 9.65854H4.85294L5.73529 7.90244H4.41176V5.26829H7.05882M7.5 0C5.51088 0 3.60322 0.786322 2.1967 2.18598C0.790176 3.58565 0 5.48399 0 7.46341C0 9.44283 0.790176 11.3412 2.1967 12.7408C3.60322 14.1405 5.51088 14.9268 7.5 14.9268H7.94118V18C12.2294 15.9366 15 11.4146 15 7.46341C15 3.33659 11.6382 0 7.5 0Z" fill="white"/>
</svg>
