<svg width="32" height="46" viewBox="0 0 32 46" fill="none" xmlns="http://www.w3.org/2000/svg">
<path d="M16 21.85C14.4845 21.85 13.031 21.2442 11.9594 20.1659C10.8878 19.0875 10.2857 17.625 10.2857 16.1C10.2857 14.575 10.8878 13.1125 11.9594 12.0341C13.031 10.9558 14.4845 10.35 16 10.35C17.5155 10.35 18.969 10.9558 20.0406 12.0341C21.1122 13.1125 21.7143 14.575 21.7143 16.1C21.7143 16.8551 21.5665 17.6028 21.2793 18.3004C20.9921 18.9981 20.5712 19.6319 20.0406 20.1659C19.51 20.6998 18.8801 21.1233 18.1868 21.4123C17.4935 21.7013 16.7504 21.85 16 21.85ZM16 0C11.7565 0 7.68687 1.69624 4.68629 4.71558C1.68571 7.73492 0 11.83 0 16.1C0 28.175 16 46 16 46C16 46 32 28.175 32 16.1C32 11.83 30.3143 7.73492 27.3137 4.71558C24.3131 1.69624 20.2435 0 16 0Z" fill="white"/>
</svg>
