<svg width="19" height="18" viewBox="0 0 19 18" fill="none" xmlns="http://www.w3.org/2000/svg">
<path d="M9.72097 0.00800502C9.11611 -0.0369076 8.48533 0.106813 7.92367 0.448149C6.40288 1.35538 5.88443 3.36747 6.75715 4.93941L13.0995 16.3472C13.9723 17.9281 15.9078 18.4491 17.4286 17.5509C18.9408 16.6526 19.4419 14.6316 18.5779 13.0596L12.2527 1.65181C11.6997 0.663729 10.7406 0.0888477 9.72097 0.00800502ZM5.02898 4.75976L0.432043 13.0596C0.151932 13.5587 0.00294016 14.1256 0 14.7034C0 15.1363 0.0820254 15.565 0.241393 15.965C0.40076 16.3649 0.634349 16.7283 0.928822 17.0345C1.22329 17.3406 1.57288 17.5834 1.95763 17.7491C2.34238 17.9147 2.75475 18 3.1712 18C3.72706 17.9982 4.27272 17.8446 4.75347 17.5545C5.23422 17.2645 5.63317 16.8481 5.91035 16.3472V16.3562L8.64086 11.4338C7.47434 9.36779 6.28191 7.3108 5.21044 5.18194C5.14131 5.0472 5.08083 4.90348 5.03762 4.75976H5.02898ZM5.02898 4.75976L13.3069 3.17884L5.02898 4.75976Z" fill="white"/>
</svg>
