<svg width="35" height="36" viewBox="0 0 35 36" fill="none" xmlns="http://www.w3.org/2000/svg">
<path d="M31.1111 0H3.88889C1.75 0 0 1.8 0 4V32C0 34.2 1.75 36 3.88889 36H31.1111C33.25 36 35 34.2 35 32V4C35 1.8 33.25 0 31.1111 0ZM19.4444 8.2L21.5833 6L24.3056 8.8L27.0278 6L29.1667 8.2L26.4444 11L29.1667 13.8L27.0278 16L24.3056 13.2L21.5833 16L19.4444 13.8L22.1667 11L19.4444 8.2ZM6.22222 9.4H15.9444V12.4H6.22222V9.4ZM16.5278 26H12.6389V30H9.72222V26H5.83333V23H9.72222V19H12.6389V23H16.5278V26ZM29.1667 28.4H19.4444V25.4H29.1667V28.4ZM29.1667 23.6H19.4444V20.6H29.1667V23.6Z" fill="white"/>
</svg>
