<svg width="69" height="67" viewBox="0 0 69 67" fill="none" xmlns="http://www.w3.org/2000/svg">
<path d="M36.968 43.3905C37.929 44.0286 39.2102 44.0286 40.1712 43.3905L56.1872 34.1381V35.0952C58.4294 35.0952 60.6717 35.4143 62.5936 36.3714V30.6286L65.7968 28.7143C67.3984 27.7571 67.7187 25.8429 67.0781 24.2476L62.2733 16.2714C61.953 15.6333 61.6326 14.9952 60.992 14.6762L35.6867 0.638095C35.0461 0.319048 34.4054 0 33.7648 0C33.1241 0 32.4835 0.319048 31.8429 0.638095L6.8579 14.6762C6.21726 14.9952 5.57662 15.3143 5.2563 15.9524L0.451504 24.2476C-0.509456 25.8429 0.131184 27.7571 1.73278 28.7143C2.69374 29.3524 3.97502 29.3524 4.93598 28.7143V46.2619C4.93598 47.5381 5.57662 48.4952 6.53758 49.1333L31.8429 63.1714C32.4835 63.4905 33.1241 63.8095 33.7648 63.8095C34.4054 63.8095 35.0461 63.4905 35.6867 63.1714L38.5696 61.5762C37.6086 59.6619 37.2883 57.4286 36.968 55.1952M30.5616 55.1952L11.3424 44.3476V22.9714L30.5616 33.819V55.1952ZM59.7107 24.5667L39.5306 36.0524L37.6086 32.8619L57.7888 21.3762L59.7107 24.5667ZM33.7648 28.0762V7.01905L52.984 17.5476L33.7648 28.0762ZM59.3904 41.4762V51.0476H69V57.4286H59.3904V67H52.984V57.4286H43.3744V51.0476H52.984V41.4762H59.3904Z" fill="#F26A29"/>
</svg>
