<svg width="130" height="118" viewBox="0 0 130 118" fill="none" xmlns="http://www.w3.org/2000/svg">
<path d="M108.68 76.9339C110.955 71.4108 112.19 65.4978 112.19 59C112.19 54.3216 111.475 49.8381 110.24 45.6795C106.015 46.6542 101.595 47.174 96.98 47.174C77.09 47.174 59.475 37.3623 48.75 22.2225C42.965 36.2577 31.915 47.6938 18.005 53.9317C17.745 55.5562 17.745 57.3106 17.745 59C17.745 71.5286 22.7236 83.544 31.5857 92.403C40.4477 101.262 52.4672 106.239 65 106.239C71.825 106.239 78.39 104.744 84.305 102.08C88.01 109.163 89.7 112.672 89.57 112.672C78.91 116.246 70.655 118 65 118C49.27 118 34.255 111.827 23.205 100.716C16.445 93.9582 11.44 85.7059 8.645 76.739H0V47.174H7.085C12.545 20.2731 36.4 0 65 0C80.6 0 95.615 6.17291 106.73 17.2841C114.985 25.4714 120.51 35.9328 122.785 47.174H130V76.3491V76.4791V76.739H129.61L106.47 97.9868L72.02 94.0881V83.2368H103.415L108.68 76.9339ZM47.255 57.5055C49.205 57.5055 51.09 58.2852 52.455 59.7148C53.82 61.0793 54.6 62.9637 54.6 64.913C54.6 66.8623 53.82 68.7467 52.455 70.1112C51.09 71.4758 49.205 72.2555 47.255 72.2555C43.16 72.2555 39.845 69.0066 39.845 64.913C39.845 60.8194 43.16 57.5055 47.255 57.5055ZM82.68 57.5055C86.775 57.5055 90.025 60.8194 90.025 64.913C90.025 69.0066 86.775 72.2555 82.68 72.2555C78.585 72.2555 75.27 69.0066 75.27 64.913C75.27 62.9484 76.0507 61.0643 77.4403 59.6751C78.83 58.2859 80.7147 57.5055 82.68 57.5055Z" fill="white"/>
</svg>
