<svg width="39" height="42" viewBox="0 0 39 42" fill="none" xmlns="http://www.w3.org/2000/svg">
<path d="M24 4H12V0H24V4ZM20 36C20 38.06 20.52 40 21.42 41.66C20.32 41.88 19.18 42 18 42C8.06 42 0 33.94 0 24C0 14.06 8.06 6 18 6C22.24 6 26.14 7.48 29.24 10L32.08 7.12C33.1 8 34 8.92 34.9 9.94L32.06 12.78C34.52 15.86 36 19.76 36 24C36 24.24 36 24.46 36 24.7C34.72 24.26 33.4 24 32 24C25.38 24 20 29.38 20 36ZM20 12H16V26H20V12ZM36.68 29.68L29.5 36.86L26.32 33.68L24 36L29.5 42L39 32.5L36.68 29.68Z" fill="white"/>
</svg>
