<svg width="124" height="124" viewBox="0 0 124 124" fill="none" xmlns="http://www.w3.org/2000/svg">
<path d="M98.58 95.418C96.968 90.458 92.318 86.8 86.8 86.8H80.6V68.2C80.6 66.5557 79.9468 64.9787 78.7841 63.8159C77.6213 62.6532 76.0443 62 74.4 62H37.2V49.6H49.6C51.2443 49.6 52.8213 48.9468 53.9841 47.7841C55.1468 46.6213 55.8 45.0443 55.8 43.4V31H68.2C71.4887 31 74.6427 29.6936 76.9681 27.3681C79.2936 25.0427 80.6 21.8887 80.6 18.6V16.058C98.766 23.374 111.6 41.168 111.6 62C111.6 74.896 106.64 86.614 98.58 95.418ZM55.8 111.166C31.31 108.128 12.4 87.296 12.4 62C12.4 58.156 12.896 54.436 13.702 50.902L43.4 80.6V86.8C43.4 90.0887 44.7064 93.2427 47.0319 95.5681C49.3573 97.8936 52.5113 99.2 55.8 99.2M62 0C53.858 0 45.7958 1.60368 38.2736 4.71947C30.7514 7.83526 23.9166 12.4021 18.1594 18.1594C6.53212 29.7866 0 45.5566 0 62C0 78.4434 6.53212 94.2134 18.1594 105.841C23.9166 111.598 30.7514 116.165 38.2736 119.281C45.7958 122.396 53.858 124 62 124C78.4434 124 94.2134 117.468 105.841 105.841C117.468 94.2134 124 78.4434 124 62C124 53.858 122.396 45.7958 119.281 38.2736C116.165 30.7514 111.598 23.9166 105.841 18.1594C100.083 12.4021 93.2486 7.83526 85.7264 4.71947C78.2042 1.60368 70.142 0 62 0Z" fill="white"/>
</svg>
